<svg xmlns="http://www.w3.org/2000/svg" xmlns:xlink="http://www.w3.org/1999/xlink" version="1.1" width="1000" height="1000" viewBox="0 0 1000 1000" xml:space="preserve">
<desc>Created with Fabric.js 3.5.0</desc>
<defs>
</defs>
<rect x="0" y="0" width="100%" height="100%" fill="#ffffff"/>
<g transform="matrix(5.9824 0 0 5.9824 500.0017 500.0015)" id="887394">
<path style="stroke: none; stroke-width: 1; stroke-dasharray: none; stroke-linecap: butt; stroke-dashoffset: 0; stroke-linejoin: miter; stroke-miterlimit: 4; is-custom-font: none; font-file-url: none; fill: rgb(0,153,255); fill-rule: nonzero; opacity: 1;" vector-effect="non-scaling-stroke" transform=" translate(6.5594, -3.3131)" d="M 38.6 -37.4 C 49.9 -27.3 58.9 -13.7 60.9 2.1 C 63 17.8 58.2 35.6 46.9 46.3 C 35.6 57 17.8 60.7 -1.9 62.6 C -21.6 64.5 -43.3 64.7 -56.8 54 C -70.4 43.3 -75.9 21.6 -74.2 1.7 C -72.4 -18.2 -63.5 -36.4 -50 -46.5 C -36.4 -56.5 -18.2 -58.4 -2.3 -56.1 C 13.7 -53.9 27.3 -47.4 38.6 -37.4 Z" stroke-linecap="round"/>
</g>
<g transform="matrix(1.9166 0 0 1.9166 492.9613 534.0177)" id="933986">
<g style="" vector-effect="non-scaling-stroke">
		<g transform="matrix(1 0 0 1 0 88.516)" id="Layer_6">
<path style="stroke: none; stroke-width: 1; stroke-dasharray: none; stroke-linecap: butt; stroke-dashoffset: 0; stroke-linejoin: miter; stroke-miterlimit: 4; is-custom-font: none; font-file-url: none; fill: rgb(255,255,255); fill-rule: nonzero; opacity: 1;" transform=" translate(-216, -304.516)" d="M 216 304.032 c -0.391 0.285 -0.799 0.538 -1.2 0.806 c 0.385 0.096 0.783 0.162 1.2 0.162 s 0.814 -0.066 1.2 -0.162 C 216.799 304.57 216.391 304.317 216 304.032 z" stroke-linecap="round"/>
</g>
		<g transform="matrix(1 0 0 1 -0.3542 -37.2075)" id="Layer_6">
<path style="stroke: none; stroke-width: 1; stroke-dasharray: none; stroke-linecap: butt; stroke-dashoffset: 0; stroke-linejoin: miter; stroke-miterlimit: 4; is-custom-font: none; font-file-url: none; fill: rgb(255,255,255); fill-rule: nonzero; opacity: 1;" transform=" translate(-215.6458, -178.7925)" d="M 331.213 174.201 l -2.41 -11.372 c -0.573 -2.701 -3.223 -4.424 -5.928 -3.855 l -44.687 9.466 l -8.436 -16.02 c -0.864 -1.642 -2.567 -2.67 -4.424 -2.67 h -10.204 l -11.544 -43.288 c -0.584 -2.189 -2.565 -3.712 -4.831 -3.712 h -3.417 V 71.083 c 0 -2.761 -2.238 -5 -5 -5 s -5 2.239 -5 5 v 31.667 H 206.92 V 61.917 c 0 -2.761 -2.239 -5 -5 -5 s -5 2.239 -5 5 v 40.833 h -3.67 c -2.265 0 -4.248 1.523 -4.831 3.712 l -11.543 43.288 H 166.5 c -1.856 0 -3.56 1.028 -4.424 2.67 l -8.489 16.123 l -45.171 -9.569 c -2.702 -0.573 -5.355 1.153 -5.927 3.855 l -2.41 11.372 c -0.275 1.297 -0.023 2.651 0.7 3.763 c 0.723 1.111 1.858 1.891 3.155 2.166 l 39.183 8.3 l -6.97 13.236 l -15.834 12.019 c -1.933 1.467 -2.533 4.111 -1.424 6.269 l 41.2 80.13 c 4.354 -0.947 8.394 -3.047 11.697 -6.175 c 1.929 -1.826 4.947 -1.826 6.876 0 c 4.603 4.358 10.623 6.759 16.951 6.759 c 6.328 0 12.348 -2.4 16.951 -6.759 c 1.928 -1.826 4.947 -1.826 6.875 0 c 4.603 4.358 10.623 6.759 16.951 6.759 s 12.349 -2.4 16.951 -6.759 c 1.928 -1.826 4.947 -1.826 6.875 0 c 3.304 3.128 7.343 5.228 11.696 6.175 l 41.201 -80.13 c 1.11 -2.158 0.51 -4.802 -1.424 -6.269 l -16.119 -12.234 l -6.91 -13.123 l 38.698 -8.198 c 1.298 -0.275 2.433 -1.054 3.155 -2.166 C 331.236 176.852 331.487 175.498 331.213 174.201 z M 262.312 159.75 l 17.808 29.973 l -39.49 -29.973 H 262.312 z M 169.518 159.75 h 21.852 l -36.399 27.627 L 169.518 159.75 z M 211 243.188 l -60.398 16.578 l -20.902 -40.653 L 211 157.406 V 243.188 z M 219.022 143.351 c -0.041 -0.031 -0.086 -0.051 -0.127 -0.081 c -0.098 -0.069 -0.199 -0.129 -0.302 -0.191 c -0.159 -0.097 -0.319 -0.187 -0.486 -0.264 c -0.107 -0.05 -0.215 -0.096 -0.327 -0.139 c -0.185 -0.07 -0.371 -0.126 -0.562 -0.174 c -0.103 -0.026 -0.203 -0.056 -0.308 -0.075 c -0.299 -0.055 -0.601 -0.091 -0.904 -0.091 c -0.002 0 -0.004 0 -0.007 0 c -0.002 0 -0.003 0 -0.005 0 c -0.304 0 -0.606 0.036 -0.905 0.091 c -0.106 0.02 -0.207 0.05 -0.31 0.076 c -0.19 0.048 -0.376 0.104 -0.561 0.174 c -0.111 0.043 -0.22 0.089 -0.327 0.139 c -0.167 0.078 -0.329 0.168 -0.489 0.266 c -0.101 0.062 -0.201 0.12 -0.296 0.188 c -0.042 0.03 -0.088 0.051 -0.13 0.083 l -8.554 6.492 c -0.3 -0.056 -0.606 -0.093 -0.923 -0.093 h -16.275 l 9.867 -37 h 37.817 l 9.867 37 h -16.446 c -0.265 0 -0.52 0.038 -0.772 0.078 L 219.022 143.351 z M 302.301 219.112 l -20.903 40.653 L 221 243.188 v -85.782 L 302.301 219.112 z" stroke-linecap="round"/>
</g>
		<g transform="matrix(1 0 0 1 -0.0035 89.6028)" id="Layer_6">
<path style="stroke: none; stroke-width: 1; stroke-dasharray: none; stroke-linecap: butt; stroke-dashoffset: 0; stroke-linejoin: miter; stroke-miterlimit: 4; is-custom-font: none; font-file-url: none; fill: rgb(255,255,255); fill-rule: nonzero; opacity: 1;" transform=" translate(-215.9965, -305.6027)" d="M 317.943 314.667 c -7.396 0 -14.49 -2.33 -20.389 -6.635 c -5.898 4.305 -12.993 6.635 -20.389 6.635 s -14.49 -2.33 -20.389 -6.635 c -5.898 4.305 -12.993 6.635 -20.389 6.635 s -14.49 -2.33 -20.389 -6.635 c -5.899 4.305 -12.993 6.635 -20.389 6.635 c -7.396 0 -14.49 -2.33 -20.389 -6.635 c -5.899 4.305 -12.993 6.635 -20.389 6.635 s -14.49 -2.33 -20.389 -6.635 c -5.899 4.305 -12.993 6.635 -20.389 6.635 c -2.761 0 -5 -2.238 -5 -5 s 2.239 -5 5 -5 c 6.329 0 12.349 -2.4 16.951 -6.759 c 1.929 -1.826 4.947 -1.826 6.876 0 c 4.603 4.358 10.623 6.759 16.951 6.759 s 12.348 -2.4 16.951 -6.759 c 1.929 -1.826 4.947 -1.826 6.876 0 c 4.603 4.358 10.623 6.759 16.951 6.759 c 6.328 0 12.348 -2.4 16.951 -6.759 c 1.928 -1.826 4.947 -1.826 6.875 0 c 4.603 4.358 10.623 6.759 16.951 6.759 s 12.349 -2.4 16.951 -6.759 c 1.928 -1.826 4.947 -1.826 6.875 0 c 4.603 4.358 10.623 6.759 16.951 6.759 s 12.349 -2.4 16.951 -6.759 c 1.928 -1.826 4.947 -1.826 6.875 0 c 4.603 4.358 10.623 6.759 16.951 6.759 c 2.762 0 5 2.238 5 5 S 320.705 314.667 317.943 314.667 z" stroke-linecap="round"/>
</g>
</g>
</g>
</svg>